<svg width="544" height="349" viewBox="0 0 544 349" fill="none" xmlns="http://www.w3.org/2000/svg">
<path d="M455.319 206.79C458.925 206.647 462.498 207.524 465.628 209.32C468.759 211.116 471.319 213.758 473.015 216.943C476.95 223.712 478.918 234.568 478.918 249.51C478.918 264.451 476.95 275.391 473.015 282.329C471.257 285.482 468.69 288.108 465.578 289.936C462.466 291.764 458.922 292.728 455.313 292.728C451.703 292.728 448.16 291.764 445.048 289.936C441.935 288.108 439.368 285.482 437.61 282.329C433.666 275.4 431.699 264.46 431.707 249.51C431.716 234.559 433.657 223.677 437.53 216.863C441.412 210.148 447.342 206.79 455.319 206.79ZM455.319 187.908C440.569 187.908 428.443 194.837 421.167 207.416C415.558 217.143 412.826 230.908 412.826 249.51C412.826 268.111 415.558 281.743 421.181 291.657C424.588 297.713 429.544 302.753 435.543 306.261C441.541 309.769 448.364 311.618 455.313 311.618C462.261 311.618 469.085 309.769 475.083 306.261C481.081 302.753 486.038 297.713 489.445 291.657C495.068 281.743 497.813 267.952 497.813 249.51C497.813 231.068 495.041 217.25 489.351 207.456C485.993 201.41 481.05 196.395 475.053 192.951C469.056 189.506 462.233 187.763 455.319 187.908V187.908Z" fill="white"/>
<path d="M388.948 188.855H384.95C380.038 188.855 377.577 190.272 377.568 193.105V344.184C377.568 347.018 380.087 348.435 385.123 348.435H389.121C394.033 348.435 396.494 347.018 396.503 344.184V193.105C396.494 190.272 393.976 188.855 388.948 188.855Z" fill="white"/>
<path d="M316.992 188.855H292.075C287.144 188.855 284.693 190.267 284.693 193.105V306.368C284.693 309.193 287.198 310.619 292.234 310.619H316.992C330.957 310.619 341.657 305.022 349.092 295.468C356.528 285.914 360.259 270.657 360.259 249.71C360.232 209.695 345.814 188.855 316.992 188.855ZM334.675 283.582C330.419 290.538 324.343 294.016 316.446 294.016H303.574V205.471H316.446C332.827 205.471 341.013 220.235 341.004 249.763C340.986 265.327 338.868 276.6 334.648 283.582H334.675Z" fill="white"/>
<path d="M259.562 188.855H255.564C250.652 188.855 248.191 190.272 248.182 193.105V276.413C248.182 284.662 245.238 287.3 244.185 288.299C241.813 290.445 238.508 292.723 229.354 292.723C220.2 292.723 216.895 290.445 214.51 288.299C213.404 287.3 210.513 284.662 210.513 276.413V193.105C210.513 190.267 208.008 188.855 202.971 188.855H198.973C194.061 188.855 191.6 190.272 191.591 193.105V276.413C191.591 287.518 195.025 296.161 201.891 302.344C208.767 308.527 217.002 311.671 229.368 311.671C241.733 311.671 249.968 308.58 256.83 302.344C263.693 296.108 267.131 287.513 267.131 276.413V193.105C267.117 190.267 264.612 188.855 259.562 188.855Z" fill="white"/>
<path d="M175.188 188.855H109.123C106.298 188.855 104.872 191.373 104.872 196.41V200.408C104.872 205.324 106.298 207.79 109.123 207.79H132.735V344.238C132.735 347.071 135.253 348.488 140.29 348.488H144.287C149.2 348.488 151.66 347.071 151.669 344.238V207.736H175.281C178.115 207.736 179.532 205.218 179.532 200.181V196.183C179.47 191.307 178.022 188.864 175.188 188.855Z" fill="white"/>
<path d="M90.0675 250.189C84.8061 245.382 78.8268 241.426 72.3453 238.463C68.1123 236.45 64.0445 234.106 60.1795 231.454C58.4757 230.33 57.1087 228.765 56.2241 226.925C55.3395 225.086 54.9703 223.04 55.156 221.008C54.9689 218.24 55.5451 215.475 56.8216 213.013C57.8996 211.095 59.5229 209.542 61.4854 208.549C64.4056 207.095 67.6309 206.359 70.8928 206.403C73.1703 206.363 75.4439 206.605 77.662 207.123C79.1768 207.445 80.6359 207.988 81.9926 208.735V208.735C84.4177 210.201 86.9273 208.775 89.5212 204.458L91.5599 201.06C94.0917 196.849 94.145 194.011 91.7198 192.545C88.7086 190.795 85.4457 189.518 82.0459 188.761C78.2895 187.864 74.4344 187.448 70.573 187.522C64.3238 187.521 58.1651 189.015 52.6109 191.879C47.5036 194.547 43.2748 198.633 40.4319 203.645C37.4544 209.048 36.0164 215.164 36.2745 221.327C36.1954 226.651 37.4749 231.907 39.9921 236.598C42.2838 240.624 45.4204 244.106 49.1864 246.805C53.8933 250.045 58.8477 252.91 64.0038 255.373C68.7181 257.494 73.0847 260.315 76.9557 263.741C79.8073 266.499 81.2864 270.403 81.3663 275.294C81.4551 280.677 79.8428 284.861 76.5293 287.846C73.015 290.918 68.4846 292.576 63.8173 292.496C56.6894 292.776 49.667 290.707 43.8298 286.607L13.0623 264.7C10.7615 263.066 8.14537 264.292 5.21387 268.378L2.92197 271.603C0.0704144 275.6 -0.204968 278.425 2.09582 280.077L32.8366 302.01C41.9682 308.451 52.9562 311.727 64.1237 311.338C73.3174 311.372 82.2088 308.056 89.1348 302.01C94.3315 297.347 100.474 288.885 100.235 275.067C100.035 262.422 94.598 254.573 90.0675 250.189Z" fill="white"/>
<path d="M539.187 140.699H467.898V108.106H496.227C499.061 108.106 500.478 105.588 500.478 100.551V96.5536C500.478 91.6411 499.061 89.1804 496.227 89.1715H467.898V56.6585H501.424C504.249 56.6585 505.675 54.14 505.675 49.1032V45.1057C505.675 40.1888 504.249 37.7236 501.424 37.7236H456.399C451.469 37.7236 449.017 39.1494 449.017 41.9743V155.237C449.017 158.08 451.535 159.496 456.572 159.488H539.187C542.021 159.488 543.438 156.969 543.438 151.932V147.935C543.438 143.12 542.021 140.708 539.187 140.699Z" fill="white"/>
<path d="M438.25 155.329L426.79 116.793V116.62V116.46C424.192 108.292 420.914 102.482 416.53 98.2713C418.111 97.1559 419.563 95.8689 420.861 94.4337C426.191 88.4641 428.856 81.3086 428.856 70.5686C428.856 59.8287 426.191 52.6732 420.861 46.7036C415.531 40.7339 407.989 37.7491 398.342 37.7491H370.093C365.176 37.7491 362.711 39.1749 362.711 41.9998V155.262C362.711 158.105 365.229 159.522 370.266 159.513H374.263C379.185 159.513 381.645 158.096 381.645 155.262V108.119H393.758C398.093 108.119 401.371 109.087 403.592 111.023C405.812 112.96 407.78 116.611 409.495 121.977L419.422 155.289C420.257 158.132 423.193 159.549 428.23 159.54H432.227C437.086 159.566 439.094 158.163 438.25 155.329ZM406.11 60.1485C407.949 62.2005 409.921 65.0388 409.921 72.9405C409.921 80.8422 407.949 83.6805 406.11 85.7325C405.244 86.6919 402.965 89.2237 395.85 89.2237H381.592V56.6573H395.85C402.965 56.6573 405.244 59.1891 406.11 60.1485Z" fill="white"/>
<path d="M344.322 4.25068C344.322 1.41689 341.803 0 336.767 0H332.769C327.857 0 325.396 1.41689 325.387 4.25068V125.335C325.387 133.57 322.442 136.222 321.39 137.221C319.018 139.353 315.713 141.645 306.559 141.645C297.405 141.645 294.1 139.353 291.715 137.221C290.609 136.222 287.717 133.57 287.717 125.335V42.0138C287.717 39.1889 285.199 37.7631 280.162 37.7631H276.164C271.248 37.7631 268.782 39.1889 268.782 42.0138V125.335C268.782 136.439 272.216 145.078 279.083 151.252C285.958 157.435 294.193 160.58 306.559 160.58C318.924 160.58 327.159 157.488 334.022 151.252C340.884 145.016 344.335 136.435 344.335 125.335V4.25068H344.322Z" fill="white"/>
<path d="M255.178 37.7635H189.072C186.248 37.7635 184.822 40.282 184.822 45.3188V49.3163C184.822 54.2333 186.248 56.6984 189.072 56.6984H212.684V155.303C212.684 158.146 215.203 159.563 220.24 159.554H224.237C229.15 159.554 231.61 158.137 231.619 155.303V56.6984H255.231C258.065 56.6984 259.482 54.18 259.482 49.1431V45.1456C259.446 40.2331 258.012 37.7724 255.178 37.7635Z" fill="white"/>
<path d="M194.495 155.33L164.128 42.0671C163.368 39.2422 160.477 37.8164 155.44 37.8164H148.777C143.74 37.8164 140.782 39.2422 140.089 42.0671L109.722 155.33C108.962 158.168 111.054 159.58 115.971 159.58H119.968C125.005 159.58 127.964 158.168 128.656 155.33L136.212 127.174H168.192L175.734 155.33C176.498 158.172 179.398 159.589 184.435 159.58H188.432C193.163 159.58 195.255 158.168 194.495 155.33ZM141.195 108.292L152.068 67.4912L163.008 108.279L141.195 108.292Z" fill="white"/>
<path d="M91.4402 0H87.4427C82.5214 0 80.0607 1.41689 80.0607 4.25068V114.848L42.0311 40.4814C41.2316 38.7047 38.8198 37.8164 34.7956 37.8164H30.7981C25.8812 37.8164 23.416 39.2422 23.416 42.0671V155.33C23.416 158.172 25.9345 159.589 30.9713 159.58H34.9688C39.8813 159.58 42.342 158.163 42.3509 155.33V82.5351L80.3005 156.769C81.0467 158.661 83.4807 159.607 87.6026 159.607H91.6001C96.5126 159.607 98.9733 158.19 98.9822 155.356V4.25068C98.9911 1.41689 96.4771 0 91.4402 0Z" fill="white"/>
</svg>
